<svg xmlns="http://www.w3.org/2000/svg" viewBox="0 0 200 200" width="200" height="200">
  <defs>
    <linearGradient id="neonCyan" x1="0%" y1="0%" x2="100%" y2="100%">
      <stop offset="0%" stop-color="#00F2FE" />
      <stop offset="100%" stop-color="#4FACFE" />
    </linearGradient>
  </defs>

  <rect width="200" height="200" rx="40" fill="#0B132B" />

  <path d="M50 40 C50 34.477 54.477 30 60 30 L110 30 L160 80 L160 160 C160 165.523 155.523 170 150 170 L60 170 C54.477 170 50 165.523 50 160 Z" stroke="url(#neonCyan)" stroke-width="8" fill="none" />

  <path d="M110 30 L110 70 C110 75.523 114.477 80 120 80 L160 80" stroke="url(#neonCyan)" stroke-width="8" fill="none" stroke-linejoin="round" />

  <path d="M65 45 Q65 55 75 55 Q65 55 65 65 Q65 55 55 55 Q65 55 65 45 Z" fill="#00F2FE" />

  <g stroke="url(#neonCyan)" stroke-width="8" stroke-linecap="round">
    <path d="M70 95 L105 95" />
    <path d="M70 125 L135 125" />
    <path d="M70 155 L115 155" />
  </g>

  <g fill="#0B132B" stroke="url(#neonCyan)" stroke-width="4">
    <circle cx="105" cy="95" r="5" />
    <circle cx="135" cy="125" r="5" />
    <circle cx="115" cy="155" r="5" />
  </g>

  <path d="M105 95 L135 125 L115 155" stroke="#00F2FE" stroke-width="2" fill="none" stroke-dasharray="4" />
</svg>